<svg width="20" height="20" viewBox="0 0 20 20" fill="none" xmlns="http://www.w3.org/2000/svg">
<path d="M10 -4.57764e-05C4.48702 -4.57764e-05 0 4.48698 0 9.99995C0 15.5129 4.48702 20 10 20C15.513 20 20 15.5129 20 9.99995C20 4.48698 15.513 -4.57764e-05 10 -4.57764e-05ZM10 1.66662C14.6122 1.66662 18.3333 5.38771 18.3333 9.99995C18.3333 14.6122 14.6122 18.3333 10 18.3333C5.38776 18.3333 1.66667 14.6122 1.66667 9.99995C1.66667 5.38771 5.38776 1.66662 10 1.66662ZM8.98926 4.99995L9.1569 11.6666H10.8431L11.0107 4.99995H8.98926ZM10.0033 13.1754C9.31242 13.1754 8.89974 13.544 8.89974 14.1731C8.89974 14.7906 9.31326 15.1578 10.0033 15.1578C10.6883 15.1578 11.0986 14.7906 11.0986 14.1731C11.0986 13.544 10.6883 13.1754 10.0033 13.1754Z" fill="white"/>
</svg>
