<svg width="10" height="11" viewBox="0 0 10 11" fill="none" xmlns="http://www.w3.org/2000/svg">
<path d="M0.967354 0.884064C0.852935 0.884323 0.741185 0.918654 0.646354 0.982677C0.551523 1.0467 0.477907 1.13751 0.434894 1.24354C0.391881 1.34957 0.38142 1.466 0.404843 1.578C0.428267 1.69 0.484514 1.79248 0.566414 1.87238L4.19025 5.49622L0.565745 9.12072C0.509632 9.1736 0.464705 9.2372 0.433628 9.30777C0.40255 9.37833 0.385956 9.45441 0.384827 9.53151C0.383699 9.6086 0.398059 9.68514 0.427058 9.75658C0.456056 9.82802 0.499102 9.89291 0.553644 9.94741C0.608187 10.0019 0.673115 10.0449 0.74458 10.0738C0.816046 10.1028 0.892594 10.1171 0.969687 10.1159C1.04678 10.1147 1.12285 10.098 1.19339 10.0669C1.26392 10.0358 1.32749 9.99079 1.38032 9.93463L5.00416 6.3108L8.62799 9.93463C8.6813 9.98893 8.74483 10.0321 8.81493 10.0617C8.88503 10.0913 8.96029 10.1068 9.03638 10.1071C9.11248 10.1075 9.18788 10.0927 9.25825 10.0638C9.32862 10.0348 9.39255 9.99222 9.44635 9.93841C9.50016 9.88461 9.54277 9.82068 9.57173 9.75031C9.60068 9.67994 9.61541 9.60454 9.61506 9.52845C9.61471 9.45235 9.59928 9.37709 9.56968 9.30699C9.54007 9.23689 9.49687 9.17336 9.44257 9.12005L5.81874 5.49622L9.4419 1.87305C9.4962 1.81975 9.5394 1.75621 9.56901 1.68611C9.59861 1.61602 9.61404 1.54075 9.61439 1.46466C9.61474 1.38857 9.60001 1.31316 9.57106 1.24279C9.5421 1.17243 9.49949 1.1085 9.44569 1.05469C9.39188 1.00089 9.32795 0.958274 9.25758 0.929317C9.18721 0.90036 9.11181 0.885633 9.03572 0.885984C8.95963 0.886336 8.88436 0.90176 8.81426 0.931366C8.74417 0.960972 8.68063 1.00417 8.62733 1.05847L5.00416 4.68231L1.38032 1.05847C1.32664 1.00328 1.26243 0.959403 1.1915 0.929446C1.12057 0.899489 1.04435 0.884058 0.967354 0.884064Z" fill="#616161"/>
</svg>
