<svg width="53" height="53" viewBox="0 0 53 53" fill="none" xmlns="http://www.w3.org/2000/svg">
<rect x="0.286865" width="52.459" height="52.459" rx="26.2295" fill="#0048E2"/>
<path d="M40.041 31.8962C40.041 36.8192 37.1061 39.754 32.1832 39.754H30.5738C29.8299 39.754 29.2213 39.1454 29.2213 38.4016V30.5979C29.2213 30.2327 29.5188 29.9217 29.884 29.9217L32.2643 29.8811C32.4537 29.8676 32.616 29.7323 32.6565 29.543L33.1299 26.9598C33.1705 26.7163 32.9811 26.4864 32.7242 26.4864L29.8434 26.527C29.4647 26.527 29.1672 26.2294 29.1537 25.8643L29.0996 22.5507C29.0996 22.3343 29.2754 22.145 29.5053 22.145L32.7512 22.0909C32.9811 22.0909 33.157 21.9151 33.157 21.6852L33.1028 18.4392C33.1028 18.2093 32.927 18.0335 32.6971 18.0335L29.0455 18.0876C26.8004 18.1282 25.0152 19.9675 25.0557 22.2126L25.1233 25.9319C25.1369 26.3106 24.8393 26.6081 24.4607 26.6216L22.8377 26.6487C22.6078 26.6487 22.432 26.8245 22.432 27.0544L22.4725 29.6241C22.4725 29.854 22.6483 30.0298 22.8783 30.0298L24.5012 30.0028C24.8799 30.0028 25.1774 30.3003 25.1909 30.6655L25.3127 38.3745C25.3262 39.1319 24.7176 39.754 23.9602 39.754H20.8496C15.9266 39.754 12.9918 36.8192 12.9918 31.8827V20.5626C12.9918 15.6397 15.9266 12.7048 20.8496 12.7048H32.1832C37.1061 12.7048 40.041 15.6397 40.041 20.5626V31.8962Z" fill="white"/>
</svg>
