<svg width="22" height="23" viewBox="0 0 22 23" fill="none" xmlns="http://www.w3.org/2000/svg">
<path d="M2.75 0.5C1.24208 0.5 0 1.74208 0 3.25V8.13889C0 9.64681 1.24208 10.8889 2.75 10.8889H7.63889C9.14681 10.8889 10.3889 9.64681 10.3889 8.13889V3.25C10.3889 1.74208 9.14681 0.5 7.63889 0.5H2.75ZM14.3611 0.5C12.8532 0.5 11.6111 1.74208 11.6111 3.25V8.13889C11.6111 9.64681 12.8532 10.8889 14.3611 10.8889H19.25C20.7579 10.8889 22 9.64681 22 8.13889V3.25C22 1.74208 20.7579 0.5 19.25 0.5H14.3611ZM2.75 2.33333H7.63889C8.15619 2.33333 8.55556 2.73269 8.55556 3.25V8.13889C8.55556 8.65619 8.15619 9.05556 7.63889 9.05556H2.75C2.23269 9.05556 1.83333 8.65619 1.83333 8.13889V3.25C1.83333 2.73269 2.23269 2.33333 2.75 2.33333ZM14.3611 2.33333H19.25C19.7673 2.33333 20.1667 2.73269 20.1667 3.25V8.13889C20.1667 8.65619 19.7673 9.05556 19.25 9.05556H14.3611C13.8438 9.05556 13.4444 8.65619 13.4444 8.13889V3.25C13.4444 2.73269 13.8438 2.33333 14.3611 2.33333ZM5.19444 4.16667C4.78925 4.16667 4.40066 4.32763 4.11414 4.61414C3.82763 4.90066 3.66667 5.28925 3.66667 5.69444C3.66667 6.09964 3.82763 6.48823 4.11414 6.77475C4.40066 7.06126 4.78925 7.22222 5.19444 7.22222C5.59964 7.22222 5.98823 7.06126 6.27475 6.77475C6.56126 6.48823 6.72222 6.09964 6.72222 5.69444C6.72222 5.28925 6.56126 4.90066 6.27475 4.61414C5.98823 4.32763 5.59964 4.16667 5.19444 4.16667ZM2.75 12.1111C1.24208 12.1111 0 13.3532 0 14.8611V19.75C0 21.2579 1.24208 22.5 2.75 22.5H7.63889C9.14681 22.5 10.3889 21.2579 10.3889 19.75V14.8611C10.3889 13.3532 9.14681 12.1111 7.63889 12.1111H2.75ZM14.3611 12.1111C12.8532 12.1111 11.6111 13.3532 11.6111 14.8611V19.75C11.6111 21.2579 12.8532 22.5 14.3611 22.5H19.25C20.7579 22.5 22 21.2579 22 19.75V14.8611C22 13.3532 20.7579 12.1111 19.25 12.1111H14.3611ZM2.75 13.9444H7.63889C8.15619 13.9444 8.55556 14.3438 8.55556 14.8611V19.75C8.55556 20.2673 8.15619 20.6667 7.63889 20.6667H2.75C2.23269 20.6667 1.83333 20.2673 1.83333 19.75V14.8611C1.83333 14.3438 2.23269 13.9444 2.75 13.9444ZM14.3611 13.9444H19.25C19.7673 13.9444 20.1667 14.3438 20.1667 14.8611V19.75C20.1667 20.2673 19.7673 20.6667 19.25 20.6667H14.3611C13.8438 20.6667 13.4444 20.2673 13.4444 19.75V14.8611C13.4444 14.3438 13.8438 13.9444 14.3611 13.9444ZM16.8056 15.5176C16.6494 15.5176 16.4938 15.5774 16.3747 15.6966L15.1966 16.8747C14.9583 17.113 14.9583 17.4981 15.1966 17.7364L16.3747 18.9145C16.613 19.1528 16.9981 19.1528 17.2364 18.9145L18.4145 17.7364C18.6528 17.4981 18.6528 17.113 18.4145 16.8747L17.2364 15.6966C17.1173 15.5774 16.9617 15.5176 16.8056 15.5176ZM5.19444 16.0821C5.08246 16.0821 4.97043 16.1357 4.90321 16.2433L3.61296 18.3082C3.46996 18.5367 3.63469 18.8333 3.90419 18.8333H6.4847C6.7542 18.8333 6.91954 18.5367 6.77593 18.3082L5.48568 16.2433C5.41845 16.1357 5.30643 16.0821 5.19444 16.0821Z" fill="black"/>
</svg>
