<svg width="53" height="53" viewBox="0 0 53 53" fill="none" xmlns="http://www.w3.org/2000/svg">
<rect x="0.270477" width="52.459" height="52.459" rx="26.2295" fill="url(#paint0_linear_118_5635)"/>
<rect x="0.270477" width="52.459" height="52.459" rx="26.2295" fill="url(#paint1_linear_118_5635)"/>
<path d="M32.1668 12.7048H20.8332C15.9102 12.7048 12.9754 15.6397 12.9754 20.5626V31.8827C12.9754 36.8192 15.9102 39.754 20.8332 39.754H32.1533C37.0762 39.754 40.0111 36.8192 40.0111 31.8962V20.5626C40.0246 15.6397 37.0897 12.7048 32.1668 12.7048ZM26.5 31.477C23.6057 31.477 21.2524 29.1237 21.2524 26.2294C21.2524 23.3352 23.6057 20.9819 26.5 20.9819C29.3942 20.9819 31.7475 23.3352 31.7475 26.2294C31.7475 29.1237 29.3942 31.477 26.5 31.477ZM34.5065 19.3048C34.4389 19.4671 34.3442 19.6159 34.2225 19.7511C34.0873 19.8729 33.9385 19.9675 33.7762 20.0352C33.6139 20.1028 33.4381 20.1434 33.2623 20.1434C32.8971 20.1434 32.559 20.0081 32.302 19.7511C32.1803 19.6159 32.0856 19.4671 32.018 19.3048C31.9504 19.1425 31.9098 18.9667 31.9098 18.7909C31.9098 18.6151 31.9504 18.4393 32.018 18.277C32.0856 18.1011 32.1803 17.9659 32.302 17.8307C32.6131 17.5196 33.0865 17.3708 33.5192 17.4655C33.6139 17.479 33.6951 17.5061 33.7762 17.5466C33.8574 17.5737 33.9385 17.6143 34.0197 17.6684C34.0873 17.7089 34.1549 17.7766 34.2225 17.8307C34.3442 17.9659 34.4389 18.1011 34.5065 18.277C34.5742 18.4393 34.6147 18.6151 34.6147 18.7909C34.6147 18.9667 34.5742 19.1425 34.5065 19.3048Z" fill="white"/>
<defs>
<linearGradient id="paint0_linear_118_5635" x1="33" y1="-4.69191e-07" x2="22" y2="52" gradientUnits="userSpaceOnUse">
<stop stop-color="#FD01B8"/>
<stop offset="0.415" stop-color="#FF0D4A"/>
<stop offset="1" stop-color="#FEC400"/>
</linearGradient>
<linearGradient id="paint1_linear_118_5635" x1="3.5" y1="3.00258e-07" x2="16" y2="17.5" gradientUnits="userSpaceOnUse">
<stop stop-color="#8C0AF9"/>
<stop offset="1" stop-opacity="0"/>
</linearGradient>
</defs>
</svg>
