<svg width="24" height="24" viewBox="0 0 24 24" fill="none" xmlns="http://www.w3.org/2000/svg">
<path d="M12.9762 7.6171C12.7312 7.6171 12.4886 7.56885 12.2623 7.47511C12.036 7.38137 11.8304 7.24397 11.6572 7.07076C11.484 6.89755 11.3466 6.69192 11.2528 6.46561C11.1591 6.2393 11.1108 5.99674 11.1108 5.75178C11.1108 5.50683 11.1591 5.26427 11.2528 5.03796C11.3466 4.81165 11.484 4.60602 11.6572 4.43281C11.8304 4.2596 12.036 4.1222 12.2623 4.02846C12.4886 3.93472 12.7312 3.88647 12.9762 3.88647C13.4709 3.88647 13.9453 4.083 14.2951 4.43281C14.6449 4.78263 14.8415 5.25707 14.8415 5.75178C14.8415 6.2465 14.6449 6.72094 14.2951 7.07076C13.9453 7.42057 13.4709 7.6171 12.9762 7.6171ZM12.9762 14.0124C12.4814 14.0124 12.007 13.8159 11.6572 13.4661C11.3074 13.1163 11.1108 12.6418 11.1108 12.1471C11.1108 11.6524 11.3074 11.178 11.6572 10.8282C12.007 10.4783 12.4814 10.2818 12.9762 10.2818C13.4709 10.2818 13.9453 10.4783 14.2951 10.8282C14.6449 11.178 14.8415 11.6524 14.8415 12.1471C14.8415 12.6418 14.6449 13.1163 14.2951 13.4661C13.9453 13.8159 13.4709 14.0124 12.9762 14.0124ZM11.1108 18.5425C11.1108 19.0372 11.3074 19.5116 11.6572 19.8615C12.007 20.2113 12.4814 20.4078 12.9762 20.4078C13.4709 20.4078 13.9453 20.2113 14.2951 19.8615C14.6449 19.5116 14.8415 19.0372 14.8415 18.5425C14.8415 18.0478 14.6449 17.5733 14.2951 17.2235C13.9453 16.8737 13.4709 16.6772 12.9762 16.6772C12.4814 16.6772 12.007 16.8737 11.6572 17.2235C11.3074 17.5733 11.1108 18.0478 11.1108 18.5425Z" fill="white"/>
</svg>
