<svg width="118" height="118" viewBox="0 0 118 118" fill="none" xmlns="http://www.w3.org/2000/svg">
<rect width="118" height="118" rx="39.3333" transform="matrix(1 0 0 -1 0 118)" fill="white"/>
<path d="M56.9879 92.3521C46.7173 92.3521 38.5774 89.2862 32.5683 83.1545C26.5898 76.9921 23.6006 68.6069 23.6006 57.999V57.907C23.6006 47.3298 26.6051 38.9753 32.6142 32.8435C38.6234 26.6811 46.7479 23.5999 56.9879 23.5999C67.2893 23.5999 75.4445 26.6811 81.4536 32.8435C87.4627 39.0059 90.4673 47.3604 90.4673 57.907V57.999C90.4673 69.0055 87.2328 77.6206 80.7638 83.8443L89.2716 96.1231H72.164L68.485 90.7885C64.8979 91.8309 61.0655 92.3521 56.9879 92.3521ZM56.9879 76.4402C57.3558 76.4402 57.8464 76.4096 58.4595 76.3482L50.3656 64.6673H67.4732L69.1748 67.1506C70.1252 64.4527 70.6004 61.4021 70.6004 57.999V57.907C70.6004 52.2352 69.3741 47.759 66.9214 44.4785C64.4687 41.1674 61.1575 39.5118 56.9879 39.5118C52.8797 39.5118 49.5992 41.1674 47.1465 44.4785C44.6938 47.759 43.4674 52.2352 43.4674 57.907V57.999C43.4674 63.7015 44.6938 68.2084 47.1465 71.5195C49.5992 74.8 52.8797 76.4402 56.9879 76.4402Z" fill="#0155B6"/>
</svg>
