<svg width="24" height="23" viewBox="0 0 24 23" fill="none" xmlns="http://www.w3.org/2000/svg">
<path d="M14.1554 22.04V17.9363C14.2476 15.5079 14.3552 13.2025 14.4782 11.02C14.6319 8.83753 15.1083 6.82411 15.9076 4.97976C16.7375 3.10466 18.1823 1.44474 20.2418 0L22.6856 2.90486C22.1015 3.42743 21.3484 4.5033 20.4262 6.13248C19.5041 7.73092 19.0122 9.94415 18.9507 12.7722L23.7 13.3716V22.04H14.1554ZM0 22.04V17.9363C0 15.5387 0.0922177 13.2486 0.276653 11.0661C0.491828 8.88364 1.04513 6.85485 1.93657 4.97976C2.82801 3.10466 4.30349 1.44474 6.36302 0L8.80679 2.90486C8.22275 3.42743 7.46964 4.48793 6.54746 6.08637C5.62528 7.68481 5.13345 9.89804 5.07198 12.726L9.54454 13.3716V22.04H0Z" fill="#0155B6"/>
</svg>
