<svg width="122" height="123" viewBox="0 0 122 123" fill="none" xmlns="http://www.w3.org/2000/svg">
<rect width="122" height="122" rx="40.6667" transform="matrix(1 0 0 -1 0 122.5)" fill="#0155B6"/>
<path d="M58.919 95.9828C48.3002 95.9828 39.8844 92.813 33.6716 86.4734C27.4905 80.1021 24.3999 71.4327 24.3999 60.4652V60.3701C24.3999 49.4342 27.5063 40.7965 33.7191 34.4569C39.9319 28.0856 48.3319 24.9 58.919 24.9C69.5695 24.9 78.0012 28.0856 84.214 34.4569C90.4268 40.8282 93.5332 49.4659 93.5332 60.3701V60.4652C93.5332 71.8447 90.1891 80.7519 83.5008 87.1866L92.297 99.8816H74.6095L70.8058 94.3662C67.0971 95.4439 63.1349 95.9828 58.919 95.9828ZM58.919 79.5315C59.2994 79.5315 59.8066 79.4998 60.4405 79.4364L52.0723 67.3595H69.7597L71.519 69.927C72.5016 67.1376 72.9929 63.9836 72.9929 60.4652V60.3701C72.9929 54.5059 71.725 49.878 69.1892 46.4863C66.6533 43.0629 63.2299 41.3513 58.919 41.3513C54.6715 41.3513 51.2798 43.0629 48.744 46.4863C46.2081 49.878 44.9402 54.5059 44.9402 60.3701V60.4652C44.9402 66.361 46.2081 71.0206 48.744 74.444C51.2798 77.8357 54.6715 79.5315 58.919 79.5315Z" fill="white"/>
</svg>
