<svg width="24" height="25" viewBox="0 0 24 25" fill="none" xmlns="http://www.w3.org/2000/svg">
<path d="M11.2085 19.4271C6.94933 19.4271 3.48975 15.9675 3.48975 11.7083C3.48975 7.44918 6.94933 3.98959 11.2085 3.98959C15.4677 3.98959 18.9272 7.44918 18.9272 11.7083C18.9272 15.9675 15.4677 19.4271 11.2085 19.4271ZM11.2085 5.17709C7.60641 5.17709 4.67725 8.10626 4.67725 11.7083C4.67725 15.3104 7.60641 18.2396 11.2085 18.2396C14.8106 18.2396 17.7397 15.3104 17.7397 11.7083C17.7397 8.10626 14.8106 5.17709 11.2085 5.17709Z" fill="black" fill-opacity="0.7"/>
<path d="M18.4602 21.0421C18.3969 21.0421 18.3335 21.0342 18.2781 21.0263C17.906 20.9787 17.2331 20.7254 16.8531 19.5933C16.6552 18.9996 16.7264 18.4058 17.051 17.9546C17.3756 17.5033 17.9219 17.25 18.5473 17.25C19.3548 17.25 19.9881 17.5588 20.2731 18.105C20.5581 18.6513 20.4789 19.3479 20.0277 20.0208C19.4656 20.8679 18.856 21.0421 18.4602 21.0421ZM17.9852 19.2213C18.1198 19.6329 18.3098 19.8388 18.4364 19.8546C18.5631 19.8704 18.8006 19.72 19.046 19.3638C19.2756 19.0233 19.2914 18.7779 19.236 18.6671C19.1806 18.5562 18.9589 18.4375 18.5473 18.4375C18.3019 18.4375 18.1198 18.5167 18.0169 18.6513C17.9219 18.7858 17.906 18.9917 17.9852 19.2213Z" fill="black" fill-opacity="0.7"/>
</svg>
