<svg width="24" height="24" viewBox="0 0 24 24" fill="none" xmlns="http://www.w3.org/2000/svg">
<path d="M12.0005 2.61615V3.74746" stroke="white" stroke-width="1.78723" stroke-linecap="round" stroke-linejoin="round"/>
<path d="M18.6001 5.34943L17.8003 6.14927" stroke="white" stroke-width="1.78723" stroke-linecap="round" stroke-linejoin="round"/>
<path d="M21.3335 11.9495H20.2021" stroke="white" stroke-width="1.78723" stroke-linecap="round" stroke-linejoin="round"/>
<path d="M5.3999 5.34943L6.19974 6.14927" stroke="white" stroke-width="1.78723" stroke-linecap="round" stroke-linejoin="round"/>
<path d="M2.66699 11.9495H3.79831" stroke="white" stroke-width="1.78723" stroke-linecap="round" stroke-linejoin="round"/>
<path d="M17.374 11.9495C17.374 8.60192 14.3138 5.96935 10.8385 6.69792C8.72063 7.14139 7.04855 8.91189 6.70011 11.0467C6.26908 13.6928 7.77599 16.0437 10.0205 16.9352V19.5858C10.0205 20.2103 10.5273 20.7171 11.1518 20.7171H12.8488C13.4733 20.7171 13.9801 20.2103 13.9801 19.5858V16.9352C15.9656 16.1466 17.374 14.2166 17.374 11.9495Z" stroke="white" stroke-width="1.78723" stroke-linecap="round" stroke-linejoin="round"/>
<path d="M9.62109 16.7576H14.3794" stroke="white" stroke-width="1.78723" stroke-linecap="round" stroke-linejoin="round"/>
</svg>
