<svg width="17" height="20" viewBox="0 0 17 20" fill="none" xmlns="http://www.w3.org/2000/svg">
<path d="M6.03173 0C5.76824 0 5.55554 0.212698 5.55554 0.476189C5.55554 0.739681 5.76824 0.952379 6.03173 0.952379H10.7936C11.0571 0.952379 11.2698 0.739681 11.2698 0.476189C11.2698 0.212698 11.0571 0 10.7936 0H6.03173ZM2.06349 2.22222C0.925395 2.22222 0 3.14761 0 4.2857C0 5.4238 0.925395 6.34919 2.06349 6.34919H14.2857V16.3492C14.2857 17.8365 13.0746 19.0476 11.5873 19.0476H5.23808C3.75079 19.0476 2.53968 17.8365 2.53968 16.3492V8.09522C2.53968 7.83173 2.32698 7.61903 2.06349 7.61903C1.8 7.61903 1.5873 7.83173 1.5873 8.09522V16.3492C1.5873 18.3619 3.22539 20 5.23808 20H11.5873C13.6 20 15.2381 18.3619 15.2381 16.3492V6.29215C16.146 6.07628 16.8254 5.26031 16.8254 4.2857C16.8254 3.14761 15.9 2.22222 14.7619 2.22222H2.06349ZM2.06349 3.1746H14.7619C15.3746 3.1746 15.873 3.67301 15.873 4.2857C15.873 4.8984 15.3746 5.39681 14.7619 5.39681H2.06349C1.45079 5.39681 0.952379 4.8984 0.952379 4.2857C0.952379 3.67301 1.45079 3.1746 2.06349 3.1746ZM6.19046 8.57141C5.92697 8.57141 5.71427 8.78411 5.71427 9.0476V16.3492C5.71427 16.6127 5.92697 16.8254 6.19046 16.8254C6.45395 16.8254 6.66665 16.6127 6.66665 16.3492V9.0476C6.66665 8.78411 6.45395 8.57141 6.19046 8.57141ZM10.6349 8.57141C10.3714 8.57141 10.1587 8.78411 10.1587 9.0476V16.3492C10.1587 16.6127 10.3714 16.8254 10.6349 16.8254C10.8984 16.8254 11.1111 16.6127 11.1111 16.3492V9.0476C11.1111 8.78411 10.8984 8.57141 10.6349 8.57141Z" fill="white"/>
</svg>
