<svg width="17" height="17" viewBox="0 0 17 17" fill="none" xmlns="http://www.w3.org/2000/svg">
<path d="M8.49995 0.670034C4.18364 0.670034 0.669983 4.18369 0.669983 8.5C0.669983 12.8163 4.18364 16.33 8.49995 16.33C12.8163 16.33 16.3299 12.8163 16.3299 8.5C16.3312 8.40978 16.3145 8.3202 16.2809 8.23648C16.2472 8.15275 16.1973 8.07655 16.1339 8.01229C16.0706 7.94804 15.9951 7.89702 15.9119 7.8622C15.8286 7.82737 15.7393 7.80944 15.649 7.80944C15.5588 7.80944 15.4695 7.82737 15.3862 7.8622C15.303 7.89702 15.2275 7.94804 15.1642 8.01229C15.1008 8.07655 15.0509 8.15275 15.0172 8.23648C14.9836 8.3202 14.9669 8.40978 14.9682 8.5C14.9682 12.0804 12.0803 14.9682 8.49995 14.9682C4.91957 14.9682 2.03172 12.0804 2.03172 8.5C2.03172 4.91962 4.91957 2.03177 8.49995 2.03177C10.3641 2.03177 12.0377 2.81749 13.2168 4.07437H11.9043C11.8141 4.07309 11.7245 4.08976 11.6408 4.1234C11.557 4.15705 11.4808 4.207 11.4166 4.27035C11.3523 4.3337 11.3013 4.40919 11.2665 4.49243C11.2317 4.57567 11.2137 4.665 11.2137 4.75523C11.2137 4.84547 11.2317 4.9348 11.2665 5.01804C11.3013 5.10128 11.3523 5.17677 11.4166 5.24012C11.4808 5.30347 11.557 5.35342 11.6408 5.38706C11.7245 5.42071 11.8141 5.43738 11.9043 5.4361H15.649V1.69133C15.6503 1.6003 15.6333 1.50994 15.599 1.42559C15.5647 1.34125 15.5138 1.26464 15.4494 1.2003C15.385 1.13595 15.3084 1.08517 15.224 1.05097C15.1396 1.01676 15.0492 0.999826 14.9582 1.00116C14.7777 1.0038 14.6057 1.07798 14.4799 1.2074C14.3541 1.33681 14.2848 1.51087 14.2873 1.69133V3.23193C12.8543 1.65957 10.7903 0.670034 8.49995 0.670034Z" fill="white"/>
</svg>
