<svg width="200" height="32" viewBox="0 0 200 32" fill="none" xmlns="http://www.w3.org/2000/svg">
<path fill-rule="evenodd" clip-rule="evenodd" d="M40.0083 12.3943C39.8397 15.0921 37.6729 16.9798 36.4658 17.5903C36.3757 17.6359 36.2704 17.6351 36.1798 17.5907C34.3812 16.7084 33.2148 14.8935 32.6807 12.7462C32.6516 12.6292 32.6372 12.509 32.6347 12.3884L32.4827 5.09273C32.4704 4.50242 32.162 3.95787 31.6621 3.64365L27.2298 0.857604C26.6722 0.50711 25.9653 0.498369 25.3992 0.83497L20.6657 3.64946C20.1452 3.95895 19.821 4.51496 19.8082 5.12039L19.6534 12.3943C19.6534 15.0751 17.0936 17.2226 16.0987 17.6148C16.0156 17.6475 15.9241 17.6351 15.8464 17.591C13.6517 16.344 12.6887 14.0025 12.459 12.3943L12.1469 5.05946C12.1225 4.48758 11.8208 3.96352 11.3384 3.65535L6.75613 0.727758C6.16964 0.353056 5.41713 0.360384 4.83805 0.746438L0.781749 3.45064C0.293584 3.77608 0.000366211 4.32396 0.000366211 4.91067V10.0514C0.000366211 10.6381 0.293584 11.186 0.781749 11.5114L6.31741 15.2019C9.47594 17.483 9.82688 19.5887 9.82688 21.168V27.53C9.82688 28.1541 10.1584 28.7312 10.6975 29.0457L15.2598 31.707C15.8061 32.0257 16.4817 32.0257 17.0281 31.707L21.5904 29.0457C22.1295 28.7312 22.461 28.1541 22.461 27.53V20.3368C22.7591 17.4962 24.8715 15.6544 26.1278 14.8033C26.2447 14.7242 26.3978 14.7271 26.5125 14.8095C29.0413 16.629 30.0917 19.2013 30.1818 20.3368V27.5592C30.1818 28.1675 30.4969 28.7325 31.0144 29.0521L35.2516 31.6692C35.8033 32.0099 36.4978 32.0187 37.0579 31.692L41.6148 29.0338C42.1429 28.7257 42.4726 28.1651 42.485 27.5539L42.6404 19.9396C42.8125 17.0142 45.6849 15.1013 47.2853 14.0355L47.3782 13.9735L51.7905 11.3262C52.319 11.0091 52.6424 10.4379 52.6424 9.82151V4.7896C52.6424 4.17323 52.319 3.60205 51.7905 3.28493L47.4198 0.662538C46.8556 0.324014 46.1495 0.329574 45.5907 0.67694L40.8367 3.63211C40.3216 3.95232 40.0083 4.51585 40.0083 5.12238V12.3943ZM5.96775 2.9187L9.91883 5.19986V9.76217L5.96775 12.0433L2.01667 9.76217V5.19986L5.96775 2.9187ZM50.2966 5.16294L46.3455 2.88179L42.3945 5.16294V9.72525L46.3455 12.0064L50.2966 9.72525V5.16294Z" fill="#0155B6"/>
<path d="M80.4538 20.4071C80.4538 21.2517 80.2924 22.0488 79.9698 22.7986C79.6566 23.5388 79.22 24.1888 78.6601 24.7488C78.1097 25.2992 77.4596 25.7357 76.7099 26.0584C75.9697 26.3716 75.1773 26.5281 74.3327 26.5281C73.5735 26.5281 72.8427 26.3953 72.1405 26.1296C71.4477 25.8638 70.8214 25.4747 70.2615 24.9623C69.7015 25.4747 69.0705 25.8638 68.3682 26.1296C67.6659 26.3953 66.9352 26.5281 66.176 26.5281C65.3314 26.5281 64.5342 26.3716 63.7845 26.0584C63.0443 25.7357 62.3942 25.2992 61.8343 24.7488C61.2839 24.1888 60.8473 23.5388 60.5247 22.7986C60.2115 22.0488 60.0549 21.2517 60.0549 20.4071V5.83038H64.1404V20.4071C64.1404 20.6918 64.1926 20.9622 64.297 21.2185C64.4014 21.4652 64.5437 21.6835 64.724 21.8733C64.9138 22.0536 65.1321 22.1959 65.3788 22.3003C65.6256 22.4047 65.8913 22.4569 66.176 22.4569C66.4607 22.4569 66.7264 22.4047 66.9732 22.3003C67.2199 22.1959 67.4334 22.0536 67.6137 21.8733C67.8035 21.6835 67.9506 21.4652 68.055 21.2185C68.1594 20.9622 68.2116 20.6918 68.2116 20.4071V5.83038H72.2971V20.4071C72.2971 20.6918 72.3493 20.9622 72.4537 21.2185C72.558 21.4652 72.7004 21.6835 72.8807 21.8733C73.0705 22.0536 73.2888 22.1959 73.5355 22.3003C73.7823 22.4047 74.048 22.4569 74.3327 22.4569C74.6174 22.4569 74.8831 22.4047 75.1298 22.3003C75.3766 22.1959 75.5901 22.0536 75.7704 21.8733C75.9602 21.6835 76.1073 21.4652 76.2117 21.2185C76.3256 20.9622 76.3825 20.6918 76.3825 20.4071V5.83038H80.4538V20.4071Z" fill="#0155B6"/>
<path d="M96.1265 18.0868V14.0013C96.1265 13.4414 96.0174 12.9147 95.7991 12.4212C95.5903 11.9182 95.3009 11.4817 94.9308 11.1116C94.5607 10.7415 94.1241 10.452 93.6212 10.2432C93.1277 10.025 92.601 9.91584 92.0411 9.91584C91.4812 9.91584 90.9497 10.025 90.4468 10.2432C89.9533 10.452 89.5215 10.7415 89.1514 11.1116C88.7812 11.4817 88.4871 11.9182 88.2688 12.4212C88.06 12.9147 87.9556 13.4414 87.9556 14.0013V18.0868H96.1265ZM100.212 26.2434H96.1265V22.158H87.9556V26.2434H83.8844V14.0013C83.8844 12.872 84.0979 11.8138 84.525 10.8269C84.952 9.83043 85.5309 8.96209 86.2616 8.22187C87.0019 7.48165 87.8655 6.89801 88.8524 6.47096C89.8489 6.04391 90.9118 5.83038 92.0411 5.83038C93.1704 5.83038 94.2285 6.04391 95.2155 6.47096C96.2119 6.89801 97.0803 7.48165 97.8205 8.22187C98.5607 8.96209 99.1444 9.83043 99.5714 10.8269C99.9985 11.8138 100.212 12.872 100.212 14.0013V26.2434Z" fill="#0155B6"/>
<path d="M118.049 26.2434H103.757V5.83038H107.842V22.158H118.049V26.2434Z" fill="#0155B6"/>
<path d="M124.269 26.2434H120.184V5.83038H124.269V26.2434Z" fill="#0155B6"/>
<path d="M142.647 26.2434H126.846L135.558 9.91584H126.846V5.83038H142.647L133.963 22.158H142.647V26.2434Z" fill="#0155B6"/>
<path d="M157.195 18.0868V14.0013C157.195 13.4414 157.086 12.9147 156.867 12.4212C156.659 11.9182 156.369 11.4817 155.999 11.1116C155.629 10.7415 155.192 10.452 154.689 10.2432C154.196 10.025 153.669 9.91584 153.109 9.91584C152.55 9.91584 152.018 10.025 151.515 10.2432C151.022 10.452 150.59 10.7415 150.22 11.1116C149.85 11.4817 149.555 11.9182 149.337 12.4212C149.128 12.9147 149.024 13.4414 149.024 14.0013V18.0868H157.195ZM161.28 26.2434H157.195V22.158H149.024V26.2434H144.953V14.0013C144.953 12.872 145.166 11.8138 145.593 10.8269C146.02 9.83043 146.599 8.96209 147.33 8.22187C148.07 7.48165 148.934 6.89801 149.921 6.47096C150.917 6.04391 151.98 5.83038 153.109 5.83038C154.239 5.83038 155.297 6.04391 156.284 6.47096C157.28 6.89801 158.149 7.48165 158.889 8.22187C159.629 8.96209 160.213 9.83043 160.64 10.8269C161.067 11.8138 161.28 12.872 161.28 14.0013V26.2434Z" fill="#0155B6"/>
<path d="M181.181 16.0369C181.181 16.9764 181.058 17.8827 180.811 18.7558C180.574 19.6194 180.232 20.4308 179.786 21.19C179.34 21.9397 178.808 22.6277 178.192 23.2541C177.575 23.8709 176.887 24.4024 176.127 24.8484C175.368 25.2944 174.552 25.6408 173.679 25.8876C172.815 26.1248 171.914 26.2434 170.974 26.2434H164.825V5.83038H170.974C171.914 5.83038 172.815 5.95375 173.679 6.20049C174.552 6.43775 175.368 6.77939 176.127 7.22542C176.887 7.67145 177.575 8.20764 178.192 8.83398C178.808 9.45083 179.34 10.1389 179.786 10.8981C180.232 11.6478 180.574 12.4592 180.811 13.3323C181.058 14.1958 181.181 15.0974 181.181 16.0369ZM177.095 16.0369C177.095 15.1923 176.934 14.3999 176.611 13.6597C176.298 12.9194 175.862 12.2741 175.302 11.7237C174.751 11.1638 174.101 10.7225 173.352 10.3998C172.611 10.0772 171.819 9.91584 170.974 9.91584H168.939V22.158H170.974C171.819 22.158 172.611 22.0014 173.352 21.6882C174.101 21.3656 174.751 20.929 175.302 20.3786C175.862 19.8187 176.298 19.1686 176.611 18.4284C176.934 17.6787 177.095 16.8815 177.095 16.0369Z" fill="#0155B6"/>
<path d="M195.914 18.0868V14.0013C195.914 13.4414 195.805 12.9147 195.587 12.4212C195.378 11.9182 195.089 11.4817 194.718 11.1116C194.348 10.7415 193.912 10.452 193.409 10.2432C192.915 10.025 192.389 9.91584 191.829 9.91584C191.269 9.91584 190.737 10.025 190.234 10.2432C189.741 10.452 189.309 10.7415 188.939 11.1116C188.569 11.4817 188.275 11.9182 188.056 12.4212C187.848 12.9147 187.743 13.4414 187.743 14.0013V18.0868H195.914ZM200 26.2434H195.914V22.158H187.743V26.2434H183.672V14.0013C183.672 12.872 183.886 11.8138 184.313 10.8269C184.74 9.83043 185.319 8.96209 186.049 8.22187C186.79 7.48165 187.653 6.89801 188.64 6.47096C189.637 6.04391 190.699 5.83038 191.829 5.83038C192.958 5.83038 194.016 6.04391 195.003 6.47096C196 6.89801 196.868 7.48165 197.608 8.22187C198.348 8.96209 198.932 9.83043 199.359 10.8269C199.786 11.8138 200 12.872 200 14.0013V26.2434Z" fill="#0155B6"/>
</svg>
