<svg width="24" height="24" viewBox="0 0 24 24" fill="none" xmlns="http://www.w3.org/2000/svg">
<path d="M11.9997 2C11.9647 2 11.9243 1.99988 11.8893 2.00488C10.7393 2.13488 9.52985 4.285 8.90985 7.5H15.0895C14.4695 4.285 13.26 2.13488 12.11 2.00488C12.075 1.99988 12.0347 2 11.9997 2ZM9.15008 2.41504C6.49008 3.20004 4.29501 5.065 3.07001 7.5H7.38446C7.73446 5.5 8.33008 3.69004 9.15008 2.41504ZM14.8493 2.41504C15.6693 3.69004 16.2649 5.5 16.6149 7.5H20.9294C19.7044 5.065 17.5093 3.20004 14.8493 2.41504ZM7.31903 9.01367C7.17391 9.02115 7.03592 9.07897 6.92881 9.17717C6.8217 9.27537 6.75214 9.40783 6.73212 9.55176L6.32098 12.1309L5.57294 10.4023C5.52439 10.2907 5.44427 10.1956 5.34243 10.1288C5.2406 10.062 5.12147 10.0265 4.99969 10.0265C4.87792 10.0265 4.75879 10.062 4.65695 10.1288C4.55512 10.1956 4.475 10.2907 4.42645 10.4023L3.67841 12.1309L3.26727 9.55176C3.24611 9.40581 3.17402 9.27205 3.06376 9.17411C2.9535 9.07618 2.81216 9.02039 2.66473 9.0166C2.57231 9.01425 2.48052 9.03242 2.39597 9.06982C2.31142 9.10721 2.23622 9.1629 2.17579 9.23286C2.11535 9.30282 2.07119 9.38532 2.04648 9.4744C2.02177 9.56349 2.01713 9.65695 2.0329 9.74805L2.7829 14.4482C2.80442 14.5817 2.8686 14.7045 2.96582 14.7984C3.06303 14.8922 3.18805 14.9521 3.32214 14.9689C3.45623 14.9857 3.59216 14.9586 3.70956 14.8917C3.82696 14.8248 3.9195 14.7216 3.97333 14.5977L4.99969 12.2236L6.02606 14.5977C6.07989 14.7216 6.17243 14.8248 6.28983 14.8917C6.40723 14.9586 6.54316 14.9857 6.67725 14.9689C6.81133 14.9521 6.93636 14.8922 7.03357 14.7984C7.13079 14.7045 7.19497 14.5817 7.21649 14.4482L7.96649 9.74805C7.98308 9.65539 7.97852 9.56019 7.95317 9.46954C7.92782 9.37889 7.88232 9.29514 7.82007 9.22454C7.75782 9.15393 7.68043 9.0983 7.59367 9.06178C7.50692 9.02527 7.41303 9.00883 7.31903 9.01367ZM14.319 9.01367C14.1739 9.02115 14.0359 9.07897 13.9288 9.17717C13.8217 9.27537 13.7521 9.40783 13.7321 9.55176L13.321 12.1309L12.5729 10.4023C12.5244 10.2907 12.4443 10.1956 12.3424 10.1288C12.2406 10.062 12.1215 10.0265 11.9997 10.0265C11.8779 10.0265 11.7588 10.062 11.657 10.1288C11.5551 10.1956 11.475 10.2907 11.4265 10.4023L10.6784 12.1309L10.2673 9.55176C10.2461 9.40581 10.174 9.27205 10.0638 9.17411C9.9535 9.07618 9.81216 9.02039 9.66473 9.0166C9.57231 9.01425 9.48052 9.03242 9.39597 9.06982C9.31142 9.10721 9.23622 9.1629 9.17579 9.23286C9.11535 9.30282 9.07119 9.38532 9.04648 9.4744C9.02177 9.56349 9.01713 9.65695 9.0329 9.74805L9.7829 14.4482C9.80442 14.5817 9.8686 14.7045 9.96582 14.7984C10.063 14.8922 10.1881 14.9521 10.3221 14.9689C10.4562 14.9857 10.5922 14.9586 10.7096 14.8917C10.827 14.8248 10.9195 14.7216 10.9733 14.5977L11.9997 12.2236L13.0261 14.5977C13.0799 14.7216 13.1724 14.8248 13.2898 14.8917C13.4072 14.9586 13.5432 14.9857 13.6772 14.9689C13.8113 14.9521 13.9364 14.8922 14.0336 14.7984C14.1308 14.7045 14.195 14.5817 14.2165 14.4482L14.9665 9.74805C14.9831 9.65539 14.9785 9.56019 14.9532 9.46954C14.9278 9.37889 14.8823 9.29514 14.8201 9.22454C14.7578 9.15393 14.6804 9.0983 14.5937 9.06178C14.5069 9.02527 14.413 9.00883 14.319 9.01367ZM21.319 9.01367C21.1739 9.02115 21.0359 9.07897 20.9288 9.17717C20.8217 9.27537 20.7521 9.40783 20.7321 9.55176L20.321 12.1309L19.5729 10.4023C19.5244 10.2907 19.4443 10.1956 19.3424 10.1288C19.2406 10.062 19.1215 10.0265 18.9997 10.0265C18.8779 10.0265 18.7588 10.062 18.657 10.1288C18.5551 10.1956 18.475 10.2907 18.4265 10.4023L17.6784 12.1309L17.2673 9.55176C17.2461 9.40581 17.174 9.27205 17.0638 9.17411C16.9535 9.07618 16.8122 9.02039 16.6647 9.0166C16.5723 9.01425 16.4805 9.03242 16.396 9.06982C16.3114 9.10721 16.2362 9.1629 16.1758 9.23286C16.1154 9.30282 16.0712 9.38532 16.0465 9.4744C16.0218 9.56349 16.0171 9.65695 16.0329 9.74805L16.7829 14.4482C16.8044 14.5817 16.8686 14.7045 16.9658 14.7984C17.063 14.8922 17.1881 14.9521 17.3221 14.9689C17.4562 14.9857 17.5922 14.9586 17.7096 14.8917C17.827 14.8248 17.9195 14.7216 17.9733 14.5977L18.9997 12.2236L20.0261 14.5977C20.0799 14.7216 20.1724 14.8248 20.2898 14.8917C20.4072 14.9586 20.5432 14.9857 20.6772 14.9689C20.8113 14.9521 20.9364 14.8922 21.0336 14.7984C21.1308 14.7045 21.195 14.5817 21.2165 14.4482L21.9665 9.74805C21.9831 9.65539 21.9785 9.56019 21.9532 9.46954C21.9278 9.37889 21.8823 9.29514 21.8201 9.22454C21.7578 9.15393 21.6804 9.0983 21.5937 9.06178C21.5069 9.02527 21.413 9.00883 21.319 9.01367ZM3.07001 16.5C4.29501 18.935 6.49008 20.8 9.15008 21.585C8.33008 20.31 7.73446 18.5 7.38446 16.5H3.07001ZM8.90985 16.5C9.52985 19.715 10.7393 21.8651 11.8893 21.9951C11.9243 22.0001 11.9647 22 11.9997 22C12.0347 22 12.075 22.0001 12.11 21.9951C13.26 21.8651 14.4695 19.715 15.0895 16.5H8.90985ZM16.6149 16.5C16.2649 18.5 15.6693 20.31 14.8493 21.585C17.5093 20.8 19.7044 18.935 20.9294 16.5H16.6149Z" fill="white"/>
</svg>
