<svg width="53" height="53" viewBox="0 0 53 53" fill="none" xmlns="http://www.w3.org/2000/svg">
<rect x="0.254089" width="52.459" height="52.459" rx="26.2295" fill="#FF0000"/>
<path d="M33.2459 15.4099H19.7213C15.6639 15.4099 12.959 18.1148 12.959 22.1722V30.287C12.959 34.3443 15.6639 37.0493 19.7213 37.0493H33.2459C37.3033 37.0493 40.0082 34.3443 40.0082 30.287V22.1722C40.0082 18.1148 37.3033 15.4099 33.2459 15.4099ZM29.0398 27.6226L25.6991 29.6243C24.3467 30.4357 23.2377 29.8136 23.2377 28.2312V24.2144C23.2377 22.6321 24.3467 22.0099 25.6991 22.8214L29.0398 24.823C30.3246 25.6074 30.3246 26.8517 29.0398 27.6226Z" fill="white"/>
</svg>
